<mxfile host="Electron" modified="2023-08-12T06:29:55.037Z" agent="Mozilla/5.0 (Windows NT 10.0; Win64; x64) AppleWebKit/537.36 (KHTML, like Gecko) draw.io/21.6.8 Chrome/114.0.5735.289 Electron/25.5.0 Safari/537.36" etag="mj1GH0at-fsG3bjHjShV" version="21.6.8" type="device">
  <diagram name="Страница — 1" id="wgazQlaNMVZ0-UX0TvJ_">
    <mxGraphModel dx="1218" dy="1198" grid="1" gridSize="10" guides="1" tooltips="1" connect="1" arrows="1" fold="1" page="1" pageScale="1" pageWidth="1169" pageHeight="827" math="0" shadow="0">
      <root>
        <mxCell id="0" />
        <mxCell id="1" parent="0" />
        <mxCell id="ALBR91glE-VKYybN5K2X-1" value="&lt;font style=&quot;font-size: 18px;&quot;&gt;&lt;b&gt;Visitor&lt;/b&gt;&lt;/font&gt;" style="text;html=1;align=center;verticalAlign=middle;resizable=0;points=[];autosize=1;strokeColor=none;fillColor=none;" parent="1" vertex="1">
          <mxGeometry x="190" y="90" width="80" height="40" as="geometry" />
        </mxCell>
        <mxCell id="9wymP5ozO-5qhFdc45TR-3" style="edgeStyle=orthogonalEdgeStyle;rounded=0;orthogonalLoop=1;jettySize=auto;html=1;exitX=1;exitY=0.25;exitDx=0;exitDy=0;entryX=0;entryY=0.5;entryDx=0;entryDy=0;" parent="1" source="ALBR91glE-VKYybN5K2X-2" target="9wymP5ozO-5qhFdc45TR-1" edge="1">
          <mxGeometry relative="1" as="geometry" />
        </mxCell>
        <mxCell id="9wymP5ozO-5qhFdc45TR-4" style="edgeStyle=orthogonalEdgeStyle;rounded=0;orthogonalLoop=1;jettySize=auto;html=1;exitX=1;exitY=0.5;exitDx=0;exitDy=0;entryX=0;entryY=0.5;entryDx=0;entryDy=0;" parent="1" source="ALBR91glE-VKYybN5K2X-2" target="9wymP5ozO-5qhFdc45TR-2" edge="1">
          <mxGeometry relative="1" as="geometry" />
        </mxCell>
        <mxCell id="ALBR91glE-VKYybN5K2X-2" value="Авторизация" style="rounded=1;whiteSpace=wrap;html=1;fillColor=#d5e8d4;strokeColor=#82b366;" parent="1" vertex="1">
          <mxGeometry x="310" y="320" width="100" height="30" as="geometry" />
        </mxCell>
        <mxCell id="9wymP5ozO-5qhFdc45TR-1" value="Регистрация" style="rounded=1;whiteSpace=wrap;html=1;fillColor=#ffe6cc;strokeColor=#d79b00;" parent="1" vertex="1">
          <mxGeometry x="450" y="300" width="100" height="30" as="geometry" />
        </mxCell>
        <mxCell id="9wymP5ozO-5qhFdc45TR-2" value="Аутентификация" style="rounded=1;whiteSpace=wrap;html=1;fillColor=#fff2cc;strokeColor=#d6b656;" parent="1" vertex="1">
          <mxGeometry x="450" y="340" width="100" height="30" as="geometry" />
        </mxCell>
        <mxCell id="9wymP5ozO-5qhFdc45TR-23" style="edgeStyle=orthogonalEdgeStyle;rounded=0;orthogonalLoop=1;jettySize=auto;html=1;exitX=1;exitY=0.25;exitDx=0;exitDy=0;entryX=0;entryY=0.5;entryDx=0;entryDy=0;dashed=1;dashPattern=1 4;" parent="1" source="9wymP5ozO-5qhFdc45TR-6" target="ALBR91glE-VKYybN5K2X-2" edge="1">
          <mxGeometry relative="1" as="geometry" />
        </mxCell>
        <mxCell id="9wymP5ozO-5qhFdc45TR-6" value="Гость" style="rounded=1;whiteSpace=wrap;html=1;fillColor=#d5e8d4;strokeColor=#82b366;" parent="1" vertex="1">
          <mxGeometry x="180" y="380" width="100" height="30" as="geometry" />
        </mxCell>
        <mxCell id="9wymP5ozO-5qhFdc45TR-8" value="&lt;ol&gt;&lt;li&gt;Просмотр книг&lt;/li&gt;&lt;li&gt;Поиск книг, авторов&lt;/li&gt;&lt;li&gt;Фильтрация по тэгам&lt;/li&gt;&lt;/ol&gt;" style="rounded=1;whiteSpace=wrap;html=1;fillColor=#dae8fc;strokeColor=#6c8ebf;align=left;" parent="1" vertex="1">
          <mxGeometry x="320" y="510" width="200" height="80" as="geometry" />
        </mxCell>
        <mxCell id="9wymP5ozO-5qhFdc45TR-12" value="&lt;font style=&quot;font-size: 10px;&quot;&gt;Почта, пароль, подтверждение пароля, валидация и подтверждение почты&lt;br&gt;&lt;/font&gt;" style="rounded=1;whiteSpace=wrap;html=1;fillColor=#ffe6cc;strokeColor=#d79b00;" parent="1" vertex="1">
          <mxGeometry x="560" y="220" width="100" height="110" as="geometry" />
        </mxCell>
        <mxCell id="9wymP5ozO-5qhFdc45TR-13" value="&lt;font style=&quot;font-size: 10px;&quot;&gt;Почта, пароль&lt;br&gt;&lt;/font&gt;" style="rounded=1;whiteSpace=wrap;html=1;fillColor=#fff2cc;strokeColor=#d6b656;" parent="1" vertex="1">
          <mxGeometry x="560" y="340" width="100" height="30" as="geometry" />
        </mxCell>
        <mxCell id="9wymP5ozO-5qhFdc45TR-14" value="&lt;font style=&quot;font-size: 10px;&quot;&gt;Почта, пароль&lt;br&gt;&lt;/font&gt;" style="rounded=1;whiteSpace=wrap;html=1;fillColor=#fff2cc;strokeColor=#d6b656;" parent="1" vertex="1">
          <mxGeometry x="670" y="340" width="100" height="30" as="geometry" />
        </mxCell>
        <mxCell id="9wymP5ozO-5qhFdc45TR-22" style="edgeStyle=orthogonalEdgeStyle;rounded=0;orthogonalLoop=1;jettySize=auto;html=1;exitX=0.5;exitY=1;exitDx=0;exitDy=0;entryX=0.5;entryY=0;entryDx=0;entryDy=0;" parent="1" source="9wymP5ozO-5qhFdc45TR-15" target="9wymP5ozO-5qhFdc45TR-6" edge="1">
          <mxGeometry relative="1" as="geometry" />
        </mxCell>
        <mxCell id="9wymP5ozO-5qhFdc45TR-15" value="Анонимная сессия" style="rounded=1;whiteSpace=wrap;html=1;fillColor=#dae8fc;strokeColor=#6c8ebf;" parent="1" vertex="1">
          <mxGeometry x="180" y="230" width="100" height="30" as="geometry" />
        </mxCell>
        <mxCell id="9wymP5ozO-5qhFdc45TR-18" style="edgeStyle=orthogonalEdgeStyle;rounded=0;orthogonalLoop=1;jettySize=auto;html=1;exitX=0;exitY=0.5;exitDx=0;exitDy=0;entryX=0;entryY=0.5;entryDx=0;entryDy=0;" parent="1" source="9wymP5ozO-5qhFdc45TR-16" target="9wymP5ozO-5qhFdc45TR-17" edge="1">
          <mxGeometry relative="1" as="geometry">
            <Array as="points">
              <mxPoint x="150" y="175" />
              <mxPoint x="150" y="445" />
            </Array>
          </mxGeometry>
        </mxCell>
        <mxCell id="9wymP5ozO-5qhFdc45TR-19" value="Да" style="edgeLabel;html=1;align=center;verticalAlign=middle;resizable=0;points=[];" parent="9wymP5ozO-5qhFdc45TR-18" vertex="1" connectable="0">
          <mxGeometry x="-0.5719" y="-3" relative="1" as="geometry">
            <mxPoint as="offset" />
          </mxGeometry>
        </mxCell>
        <mxCell id="9wymP5ozO-5qhFdc45TR-20" style="edgeStyle=orthogonalEdgeStyle;rounded=0;orthogonalLoop=1;jettySize=auto;html=1;exitX=0.5;exitY=1;exitDx=0;exitDy=0;entryX=0.5;entryY=0;entryDx=0;entryDy=0;" parent="1" source="9wymP5ozO-5qhFdc45TR-16" target="9wymP5ozO-5qhFdc45TR-15" edge="1">
          <mxGeometry relative="1" as="geometry" />
        </mxCell>
        <mxCell id="9wymP5ozO-5qhFdc45TR-21" value="Нет" style="edgeLabel;html=1;align=center;verticalAlign=middle;resizable=0;points=[];" parent="9wymP5ozO-5qhFdc45TR-20" vertex="1" connectable="0">
          <mxGeometry x="-0.2391" relative="1" as="geometry">
            <mxPoint as="offset" />
          </mxGeometry>
        </mxCell>
        <mxCell id="9wymP5ozO-5qhFdc45TR-16" value="Проверка токена" style="rounded=1;whiteSpace=wrap;html=1;fillColor=#dae8fc;strokeColor=#6c8ebf;" parent="1" vertex="1">
          <mxGeometry x="180" y="160" width="100" height="30" as="geometry" />
        </mxCell>
        <mxCell id="9wymP5ozO-5qhFdc45TR-17" value="Авторизованный пользователь" style="rounded=1;whiteSpace=wrap;html=1;fillColor=#d5e8d4;strokeColor=#82b366;" parent="1" vertex="1">
          <mxGeometry x="180" y="430" width="100" height="30" as="geometry" />
        </mxCell>
        <mxCell id="9wymP5ozO-5qhFdc45TR-26" value="&lt;ol&gt;&lt;li&gt;Добавление новой книги&lt;/li&gt;&lt;li&gt;Добавление в свои&lt;/li&gt;&lt;li&gt;Покупка книги&lt;/li&gt;&lt;li&gt;Оставить комментарий&lt;/li&gt;&lt;/ol&gt;" style="rounded=1;whiteSpace=wrap;html=1;fillColor=#dae8fc;strokeColor=#6c8ebf;align=left;" parent="1" vertex="1">
          <mxGeometry x="320" y="610" width="200" height="80" as="geometry" />
        </mxCell>
        <mxCell id="9wymP5ozO-5qhFdc45TR-27" value="" style="swimlane;startSize=0;align=left;" parent="1" vertex="1">
          <mxGeometry x="350" y="10" width="200" height="200" as="geometry" />
        </mxCell>
        <mxCell id="9wymP5ozO-5qhFdc45TR-28" value="Features" style="text;html=1;align=center;verticalAlign=middle;resizable=0;points=[];autosize=1;strokeColor=none;fillColor=none;" parent="1" vertex="1">
          <mxGeometry x="405" y="18" width="70" height="30" as="geometry" />
        </mxCell>
        <mxCell id="9wymP5ozO-5qhFdc45TR-29" value="&lt;ol&gt;&lt;li&gt;Обсуждения, блоги (у них есть темы и фильтрация)&lt;/li&gt;&lt;li&gt;Подписки на авторов&lt;/li&gt;&lt;/ol&gt;" style="text;html=1;align=left;verticalAlign=middle;resizable=0;points=[];autosize=1;strokeColor=none;fillColor=none;" parent="1" vertex="1">
          <mxGeometry x="205" y="28" width="350" height="70" as="geometry" />
        </mxCell>
      </root>
    </mxGraphModel>
  </diagram>
</mxfile>
